<?xml version="1.0" encoding="utf-8"?>
<!-- Generator: Adobe Illustrator 27.5.0, SVG Export Plug-In . SVG Version: 6.00 Build 0)  -->
<svg version="1.1" xmlns="http://www.w3.org/2000/svg" xmlns:xlink="http://www.w3.org/1999/xlink" x="0px" y="0px"
	 viewBox="0 0 500 500" style="enable-background:new 0 0 500 500;" xml:space="preserve">
<g id="BACKGROUND">
	<rect style="fill:#FFFFFF;" width="500" height="500"/>
	<path style="fill:#D1E9FF;" d="M453.711,406.336c0,0-415.75,0-415.75,0c-15.01-20.56-23.34-45.21-15.51-68.69
		c3.52-10.53,11.14-18.65,15.03-29.01c3.94-10.47,5.34-22.14,5.15-33.27c-0.39-23.2-13.87-44.07-16.02-66.99
		c-4.73-50.39,15.09-92.52,55.47-122.53c38.847-28.858,88.344-48.82,136.887-52.077c18.227-1.223,35.782,1.686,52.343,9.454
		c16.235,7.616,30.79,18.668,48.481,22.973c26.126,6.34,55.011,3.289,79.099,16.673c15.281,8.49,27.996,21.578,36.027,37.108
		c10.564,20.429,9.23,43.671,12.252,65.803c5.37,39.329,25.895,74.82,31.406,113.997c4.646,33.023,2.249,70.179-17.877,98.073
		C459.728,399.195,455.335,406.336,453.711,406.336z"/>
	<g>
		<g>
			<path style="fill:#A1D2FF;" d="M231.608,209.383h-14.871v-46.628c0-0.529,0.429-0.958,0.958-0.958h12.954
				c0.529,0,0.958,0.429,0.958,0.958V209.383z"/>
			<path style="fill:#D9EDFF;" d="M228.171,186.648h-7.997c-0.529,0-0.958-0.429-0.958-0.958v-19.993
				c0-0.529,0.429-0.958,0.958-0.958h7.997c0.529,0,0.958,0.429,0.958,0.958v19.993C229.129,186.219,228.7,186.648,228.171,186.648z
				"/>
			<path style="fill:#54ADFF;" d="M226.849,201.75c0-1.478-1.199-2.677-2.677-2.677s-2.677,1.198-2.677,2.677
				c0,1.478,1.198,2.677,2.677,2.677S226.849,203.228,226.849,201.75z"/>
		</g>
		<g>
			<path style="fill:#A1D2FF;" d="M168.625,271.711h-12.302v-46.715c0-0.481,0.39-0.872,0.872-0.872h10.559
				c0.481,0,0.872,0.39,0.872,0.872V271.711z"/>
			<path style="fill:#D9EDFF;" d="M164.876,267.977h-4.803c-0.481,0-0.872-0.39-0.872-0.872v-38.167c0-0.481,0.39-0.872,0.872-0.872
				h4.803c0.481,0,0.872,0.39,0.872,0.872v38.167C165.748,267.586,165.357,267.977,164.876,267.977z"/>
		</g>
		<g>
			<path style="fill:#A1D2FF;" d="M249.609,209.383h-14.871v-46.628c0-0.529,0.429-0.958,0.958-0.958h12.954
				c0.529,0,0.958,0.429,0.958,0.958V209.383z"/>
			<path style="fill:#D9EDFF;" d="M246.172,186.648h-7.997c-0.529,0-0.958-0.429-0.958-0.958v-19.993
				c0-0.529,0.429-0.958,0.958-0.958h7.997c0.529,0,0.958,0.429,0.958,0.958v19.993C247.13,186.219,246.701,186.648,246.172,186.648
				z"/>
			<path style="fill:#54ADFF;" d="M244.85,201.75c0-1.478-1.198-2.677-2.677-2.677c-1.478,0-2.677,1.198-2.677,2.677
				c0,1.478,1.199,2.677,2.677,2.677C243.652,204.426,244.85,203.228,244.85,201.75z"/>
		</g>
		<g>
			<path style="fill:#A1D2FF;" d="M267.61,209.383h-14.871v-46.628c0-0.529,0.429-0.958,0.958-0.958h12.954
				c0.529,0,0.958,0.429,0.958,0.958V209.383z"/>
			<path style="fill:#D9EDFF;" d="M264.173,186.648h-7.997c-0.529,0-0.958-0.429-0.958-0.958v-19.993
				c0-0.529,0.429-0.958,0.958-0.958h7.997c0.529,0,0.958,0.429,0.958,0.958v19.993
				C265.132,186.219,264.702,186.648,264.173,186.648z"/>
			<path style="fill:#54ADFF;" d="M262.851,201.75c0-1.478-1.198-2.677-2.677-2.677c-1.478,0-2.677,1.198-2.677,2.677
				c0,1.478,1.198,2.677,2.677,2.677C261.653,204.426,262.851,203.228,262.851,201.75z"/>
		</g>
		<g>
			<path style="fill:#94CBFF;" d="M223.862,396.952h-68.379v-39.586c0-1.104,0.895-2,2-2h64.379c1.105,0,2,0.896,2,2V396.952z"/>
			<path style="fill:#C9E5FF;" d="M217.069,374.607h-22.414c-0.552,0-1-0.448-1-1v-12.276c0-0.552,0.448-1,1-1h22.414
				c0.552,0,1,0.448,1,1v12.276C218.069,374.16,217.621,374.607,217.069,374.607z"/>
		</g>
		<path style="fill:#BADEFF;" d="M359.103,84.4H139.379v9.931v52.524v9.931v52.524v9.931v52.524v9.931v52.524v9.931v52.524v9.931
			h219.724h1.517V84.4H359.103z M149.379,94.4h201.242v52.455H149.379V94.4z M149.379,156.787h201.242v52.524H149.379V156.787z
			 M149.379,219.242h201.242v52.524H149.379V219.242z M149.379,281.697h201.242v52.524H149.379V281.697z M350.621,344.152v52.455
			H149.379v-52.455H350.621z"/>
		<g>
			<path style="fill:#A1D2FF;" d="M170.504,146.883h-14.871v-46.628c0-0.529,0.429-0.958,0.958-0.958h12.954
				c0.529,0,0.958,0.429,0.958,0.958V146.883z"/>
			<path style="fill:#D9EDFF;" d="M167.068,124.148h-7.997c-0.529,0-0.958-0.429-0.958-0.958v-19.993
				c0-0.529,0.429-0.958,0.958-0.958h7.997c0.529,0,0.958,0.429,0.958,0.958v19.993
				C168.026,123.719,167.597,124.148,167.068,124.148z"/>
			<path style="fill:#54ADFF;" d="M165.746,139.25c0-1.478-1.198-2.677-2.677-2.677s-2.677,1.198-2.677,2.677
				c0,1.478,1.198,2.677,2.677,2.677S165.746,140.728,165.746,139.25z"/>
		</g>
		<g>
			<path style="fill:#A1D2FF;" d="M188.505,146.883h-14.871v-46.628c0-0.529,0.429-0.958,0.958-0.958h12.954
				c0.529,0,0.958,0.429,0.958,0.958V146.883z"/>
			<path style="fill:#D9EDFF;" d="M185.069,124.148h-7.997c-0.529,0-0.958-0.429-0.958-0.958v-19.993
				c0-0.529,0.429-0.958,0.958-0.958h7.997c0.529,0,0.958,0.429,0.958,0.958v19.993
				C186.027,123.719,185.598,124.148,185.069,124.148z"/>
			<path style="fill:#54ADFF;" d="M183.747,139.25c0-1.478-1.198-2.677-2.677-2.677s-2.677,1.198-2.677,2.677
				c0,1.478,1.198,2.677,2.677,2.677S183.747,140.728,183.747,139.25z"/>
		</g>
		<g>
			<path style="fill:#A1D2FF;" d="M206.507,146.883h-14.871v-46.628c0-0.529,0.429-0.958,0.958-0.958h12.954
				c0.529,0,0.958,0.429,0.958,0.958V146.883z"/>
			<path style="fill:#D9EDFF;" d="M203.07,124.148h-7.997c-0.529,0-0.958-0.429-0.958-0.958v-19.993
				c0-0.529,0.429-0.958,0.958-0.958h7.997c0.529,0,0.958,0.429,0.958,0.958v19.993C204.028,123.719,203.599,124.148,203.07,124.148
				z"/>
			<path style="fill:#54ADFF;" d="M201.748,139.25c0-1.478-1.198-2.677-2.677-2.677c-1.478,0-2.677,1.198-2.677,2.677
				c0,1.478,1.198,2.677,2.677,2.677C200.55,141.926,201.748,140.728,201.748,139.25z"/>
		</g>
		<g>
			<path style="fill:#A1D2FF;" d="M170.366,334.194h-14.871v-46.628c0-0.529,0.429-0.958,0.958-0.958h12.954
				c0.529,0,0.958,0.429,0.958,0.958V334.194z"/>
			<path style="fill:#D9EDFF;" d="M166.93,311.458h-7.997c-0.529,0-0.958-0.429-0.958-0.958v-19.993
				c0-0.529,0.429-0.958,0.958-0.958h7.997c0.529,0,0.958,0.429,0.958,0.958V310.5C167.888,311.029,167.459,311.458,166.93,311.458z
				"/>
			<path style="fill:#54ADFF;" d="M165.608,326.56c0-1.478-1.198-2.677-2.677-2.677c-1.478,0-2.677,1.198-2.677,2.677
				s1.198,2.677,2.677,2.677C164.409,329.237,165.608,328.038,165.608,326.56z"/>
		</g>
		<g>
			<path style="fill:#A1D2FF;" d="M188.932,334.194h-14.871v-46.628c0-0.529,0.429-0.958,0.958-0.958h12.954
				c0.529,0,0.958,0.429,0.958,0.958V334.194z"/>
			<path style="fill:#D9EDFF;" d="M185.496,311.458h-7.997c-0.529,0-0.958-0.429-0.958-0.958v-19.993
				c0-0.529,0.429-0.958,0.958-0.958h7.997c0.529,0,0.958,0.429,0.958,0.958V310.5C186.454,311.029,186.025,311.458,185.496,311.458
				z"/>
			<path style="fill:#54ADFF;" d="M184.174,326.56c0-1.478-1.199-2.677-2.677-2.677s-2.677,1.198-2.677,2.677
				s1.198,2.677,2.677,2.677S184.174,328.038,184.174,326.56z"/>
		</g>
		<g>
			<path style="fill:#A1D2FF;" d="M207.498,334.194h-14.871v-46.628c0-0.529,0.429-0.958,0.958-0.958h12.954
				c0.529,0,0.958,0.429,0.958,0.958V334.194z"/>
			<path style="fill:#D9EDFF;" d="M204.062,311.458h-7.997c-0.529,0-0.958-0.429-0.958-0.958v-19.993
				c0-0.529,0.429-0.958,0.958-0.958h7.997c0.529,0,0.958,0.429,0.958,0.958V310.5C205.02,311.029,204.591,311.458,204.062,311.458z
				"/>
			<circle style="fill:#54ADFF;" cx="200.063" cy="326.56" r="2.677"/>
		</g>
		<g>
			<path style="fill:#A1D2FF;" d="M226.064,334.194h-14.871v-46.628c0-0.529,0.429-0.958,0.958-0.958h12.954
				c0.529,0,0.958,0.429,0.958,0.958V334.194z"/>
			<path style="fill:#D9EDFF;" d="M222.627,311.458h-7.997c-0.529,0-0.958-0.429-0.958-0.958v-19.993
				c0-0.529,0.429-0.958,0.958-0.958h7.997c0.529,0,0.958,0.429,0.958,0.958V310.5C223.586,311.029,223.157,311.458,222.627,311.458
				z"/>
			<path style="fill:#54ADFF;" d="M221.306,326.56c0-1.478-1.198-2.677-2.677-2.677s-2.677,1.198-2.677,2.677
				s1.199,2.677,2.677,2.677S221.306,328.038,221.306,326.56z"/>
		</g>
		<g>
			<path style="fill:#A1D2FF;" d="M244.63,334.194H229.76v-46.628c0-0.529,0.429-0.958,0.958-0.958h12.954
				c0.529,0,0.958,0.429,0.958,0.958V334.194z"/>
			<path style="fill:#D9EDFF;" d="M241.193,311.458h-7.997c-0.529,0-0.958-0.429-0.958-0.958v-19.993
				c0-0.529,0.429-0.958,0.958-0.958h7.997c0.529,0,0.958,0.429,0.958,0.958V310.5C242.152,311.029,241.723,311.458,241.193,311.458
				z"/>
			<path style="fill:#54ADFF;" d="M239.872,326.56c0-1.478-1.198-2.677-2.677-2.677c-1.478,0-2.677,1.198-2.677,2.677
				s1.198,2.677,2.677,2.677C238.673,329.237,239.872,328.038,239.872,326.56z"/>
		</g>
		<g>
			<path style="fill:#A1D2FF;" d="M263.196,334.539h-14.871v-46.628c0-0.529,0.429-0.958,0.958-0.958h12.954
				c0.529,0,0.958,0.429,0.958,0.958V334.539z"/>
			<path style="fill:#D9EDFF;" d="M259.759,311.803h-7.997c-0.529,0-0.958-0.429-0.958-0.958v-19.993
				c0-0.529,0.429-0.958,0.958-0.958h7.997c0.529,0,0.958,0.429,0.958,0.958v19.993
				C260.718,311.374,260.289,311.803,259.759,311.803z"/>
			<path style="fill:#54ADFF;" d="M258.438,326.905c0-1.478-1.198-2.677-2.677-2.677s-2.677,1.198-2.677,2.677
				c0,1.478,1.198,2.677,2.677,2.677S258.438,328.383,258.438,326.905z"/>
		</g>
		<g>
			<path style="fill:#A1D2FF;" d="M292.837,271.821l-13.852-5.41l16.963-43.433c0.193-0.493,0.748-0.737,1.241-0.544l12.066,4.713
				c0.493,0.193,0.737,0.748,0.544,1.241L292.837,271.821z"/>
			<path style="fill:#D9EDFF;" d="M297.907,249.393l-7.449-2.909c-0.493-0.192-0.737-0.748-0.544-1.241l7.273-18.623
				c0.193-0.493,0.748-0.737,1.241-0.544l7.449,2.909c0.493,0.193,0.737,0.748,0.544,1.241l-7.273,18.623
				C298.956,249.342,298.4,249.585,297.907,249.393z"/>
			<path style="fill:#54ADFF;" d="M291.182,262.979c0.538-1.377-0.142-2.929-1.52-3.467c-1.377-0.538-2.929,0.143-3.467,1.52
				c-0.538,1.377,0.142,2.929,1.52,3.467C289.092,265.036,290.644,264.356,291.182,262.979z"/>
		</g>
		<g>
			<path style="fill:#A1D2FF;" d="M324.646,271.711h-14.871v-46.628c0-0.529,0.429-0.958,0.958-0.958h12.954
				c0.529,0,0.958,0.429,0.958,0.958V271.711z"/>
			<path style="fill:#D9EDFF;" d="M321.209,248.975h-7.997c-0.529,0-0.958-0.429-0.958-0.958v-19.993
				c0-0.529,0.429-0.958,0.958-0.958h7.997c0.529,0,0.958,0.429,0.958,0.958v19.993
				C322.168,248.546,321.739,248.975,321.209,248.975z"/>
			<path style="fill:#54ADFF;" d="M319.887,264.077c0-1.478-1.198-2.677-2.677-2.677s-2.677,1.198-2.677,2.677
				c0,1.478,1.198,2.677,2.677,2.677S319.887,265.556,319.887,264.077z"/>
		</g>
		<g>
			<path style="fill:#A1D2FF;" d="M342.647,271.711h-14.871v-46.628c0-0.529,0.429-0.958,0.958-0.958h12.954
				c0.529,0,0.958,0.429,0.958,0.958V271.711z"/>
			<path style="fill:#D9EDFF;" d="M339.21,248.975h-7.997c-0.529,0-0.958-0.429-0.958-0.958v-19.993
				c0-0.529,0.429-0.958,0.958-0.958h7.997c0.529,0,0.958,0.429,0.958,0.958v19.993C340.169,248.546,339.74,248.975,339.21,248.975z
				"/>
			<path style="fill:#54ADFF;" d="M337.889,264.077c0-1.478-1.198-2.677-2.677-2.677c-1.478,0-2.677,1.198-2.677,2.677
				c0,1.478,1.198,2.677,2.677,2.677C336.69,266.754,337.889,265.556,337.889,264.077z"/>
		</g>
		<g>
			<g>
				<rect x="275.931" y="370.47" style="fill:#D9EDFF;" width="68.69" height="26.207"/>
			</g>
			<g>
				<path style="fill:#8FC9FF;" d="M310.276,373.465h-33.174c-0.207,0-0.375-0.168-0.375-0.375c0-0.207,0.168-0.375,0.375-0.375
					h33.174c0.207,0,0.375,0.168,0.375,0.375C310.651,373.297,310.483,373.465,310.276,373.465z"/>
			</g>
			<g>
				<path style="fill:#8FC9FF;" d="M313.919,378.568h-26.963c-0.207,0-0.375-0.168-0.375-0.375s0.168-0.375,0.375-0.375h26.963
					c0.207,0,0.375,0.168,0.375,0.375S314.126,378.568,313.919,378.568z"/>
			</g>
			<g>
				<path style="fill:#8FC9FF;" d="M343.841,383.741h-47.615c-0.207,0-0.375-0.168-0.375-0.375c0-0.207,0.168-0.375,0.375-0.375
					h47.615c0.207,0,0.375,0.168,0.375,0.375C344.216,383.573,344.048,383.741,343.841,383.741z"/>
			</g>
			<g>
				<path style="fill:#8FC9FF;" d="M343.645,375.879h-20.49c-0.207,0-0.375-0.168-0.375-0.375c0-0.207,0.168-0.375,0.375-0.375
					h20.49c0.207,0,0.375,0.168,0.375,0.375C344.02,375.711,343.852,375.879,343.645,375.879z"/>
			</g>
			<g>
				<path style="fill:#8FC9FF;" d="M303.251,388.879h-25.759c-0.207,0-0.375-0.168-0.375-0.375c0-0.207,0.168-0.375,0.375-0.375
					h25.759c0.207,0,0.375,0.168,0.375,0.375C303.626,388.711,303.458,388.879,303.251,388.879z"/>
			</g>
			<g>
				<path style="fill:#8FC9FF;" d="M332.718,394.086H281.98c-0.207,0-0.375-0.168-0.375-0.375c0-0.207,0.168-0.375,0.375-0.375
					h50.737c0.207,0,0.375,0.168,0.375,0.375C333.093,393.918,332.925,394.086,332.718,394.086z"/>
			</g>
			<g>
				<path style="fill:#8FC9FF;" d="M343.841,389.534h-22.637c-0.207,0-0.375-0.168-0.375-0.375s0.168-0.375,0.375-0.375h22.637
					c0.207,0,0.375,0.168,0.375,0.375S344.048,389.534,343.841,389.534z"/>
			</g>
		</g>
		<g>
			<g>
				
					<rect x="195.655" y="242.712" transform="matrix(-1 -1.224647e-16 1.224647e-16 -1 467.4483 514.4716)" style="fill:#D9EDFF;" width="76.138" height="29.049"/>
			</g>
			<g>
				<path style="fill:#8FC9FF;" d="M233.724,246.032h36.771c0.229,0,0.416-0.186,0.416-0.416c0-0.23-0.186-0.416-0.416-0.416
					h-36.771c-0.229,0-0.416,0.186-0.416,0.416C233.308,245.846,233.494,246.032,233.724,246.032z"/>
			</g>
			<g>
				<path style="fill:#8FC9FF;" d="M229.686,251.689h29.887c0.229,0,0.416-0.186,0.416-0.416c0-0.229-0.186-0.416-0.416-0.416
					h-29.887c-0.23,0-0.416,0.186-0.416,0.416C229.271,251.502,229.457,251.689,229.686,251.689z"/>
			</g>
			<g>
				<path style="fill:#8FC9FF;" d="M196.52,257.422h52.778c0.23,0,0.416-0.186,0.416-0.416c0-0.23-0.186-0.416-0.416-0.416H196.52
					c-0.23,0-0.416,0.186-0.416,0.416C196.104,257.236,196.29,257.422,196.52,257.422z"/>
			</g>
			<g>
				<path style="fill:#8FC9FF;" d="M196.736,248.708h22.712c0.229,0,0.416-0.186,0.416-0.416c0-0.23-0.186-0.416-0.416-0.416
					h-22.712c-0.229,0-0.416,0.186-0.416,0.416C196.321,248.521,196.507,248.708,196.736,248.708z"/>
			</g>
			<g>
				<path style="fill:#8FC9FF;" d="M241.511,263.117h28.552c0.229,0,0.416-0.186,0.416-0.416c0-0.23-0.186-0.416-0.416-0.416
					h-28.552c-0.229,0-0.416,0.186-0.416,0.416C241.095,262.931,241.282,263.117,241.511,263.117z"/>
			</g>
			<g>
				<path style="fill:#8FC9FF;" d="M208.849,268.889h56.239c0.229,0,0.416-0.186,0.416-0.416c0-0.229-0.186-0.416-0.416-0.416
					h-56.239c-0.229,0-0.416,0.186-0.416,0.416C208.433,268.703,208.62,268.889,208.849,268.889z"/>
			</g>
			<g>
				<path style="fill:#8FC9FF;" d="M196.52,263.844h25.091c0.23,0,0.416-0.186,0.416-0.416c0-0.229-0.186-0.416-0.416-0.416H196.52
					c-0.23,0-0.416,0.186-0.416,0.416C196.104,263.657,196.29,263.844,196.52,263.844z"/>
			</g>
		</g>
		<g>
			<path style="fill:#94CBFF;" d="M303.448,146.883h-68.379v-39.586c0-1.105,0.895-2,2-2h64.379c1.105,0,2,0.895,2,2V146.883z"/>
			<path style="fill:#C9E5FF;" d="M296.655,124.538h-22.414c-0.552,0-1-0.448-1-1v-12.276c0-0.552,0.448-1,1-1h22.414
				c0.552,0,1,0.448,1,1v12.276C297.655,124.091,297.207,124.538,296.655,124.538z"/>
		</g>
		<g>
			<path style="fill:#94CBFF;" d="M335.241,209.297h-48.654V176.86c0-0.905,0.734-1.639,1.639-1.639h45.377
				c0.905,0,1.639,0.734,1.639,1.639V209.297z"/>
			<path style="fill:#C9E5FF;" d="M329.675,190.988h-14.269c-0.453,0-0.819-0.367-0.819-0.819V180.11
				c0-0.452,0.367-0.819,0.819-0.819h14.269c0.452,0,0.819,0.367,0.819,0.819v10.059
				C330.495,190.621,330.128,190.988,329.675,190.988z"/>
		</g>
		<g>
			<path style="fill:#94CBFF;" d="M321.448,334.539h-48.654v-32.437c0-0.905,0.734-1.639,1.639-1.639h45.377
				c0.905,0,1.639,0.734,1.639,1.639V334.539z"/>
			<path style="fill:#C9E5FF;" d="M315.882,316.229h-14.268c-0.453,0-0.819-0.367-0.819-0.819v-10.059
				c0-0.453,0.367-0.819,0.819-0.819h14.268c0.453,0,0.819,0.367,0.819,0.819v10.059
				C316.701,315.862,316.335,316.229,315.882,316.229z"/>
		</g>
		<g>
			<path style="fill:#47A7FF;" d="M323.051,121.09h-5.931v-5.345c0-0.552,0.448-1,1-1h3.931c0.552,0,1,0.448,1,1V121.09z"/>
			<path style="fill:#78BEFF;" d="M327.172,146.883H313v-22.172c0-2.761,2.239-5,5-5h4.173c2.761,0,5,2.239,5,5V146.883z"/>
			<path style="fill:#B2DAFF;" d="M322.534,143.056h-4.897c-1.104,0-2-0.896-2-2v-12.138c0-1.104,0.896-2,2-2h4.897
				c1.105,0,2,0.896,2,2v12.138C324.534,142.16,323.639,143.056,322.534,143.056z"/>
		</g>
		<g>
			<path style="fill:#47A7FF;" d="M339.052,121.09h-5.931v-5.345c0-0.552,0.448-1,1-1h3.931c0.552,0,1,0.448,1,1V121.09z"/>
			<path style="fill:#78BEFF;" d="M343.173,146.883h-14.173v-22.172c0-2.761,2.239-5,5-5h4.173c2.761,0,5,2.239,5,5V146.883z"/>
			<path style="fill:#B2DAFF;" d="M338.535,143.056h-4.897c-1.105,0-2-0.896-2-2v-12.138c0-1.104,0.895-2,2-2h4.897
				c1.105,0,2,0.896,2,2v12.138C340.535,142.16,339.64,143.056,338.535,143.056z"/>
		</g>
		<g>
			<path style="fill:#47A7FF;" d="M163.051,183.59h-5.931v-5.345c0-0.552,0.448-1,1-1h3.931c0.552,0,1,0.448,1,1V183.59z"/>
			<path style="fill:#78BEFF;" d="M167.172,209.383H153v-22.172c0-2.762,2.239-5,5-5h4.173c2.761,0,5,2.238,5,5V209.383z"/>
			<path style="fill:#B2DAFF;" d="M162.534,205.556h-4.897c-1.105,0-2-0.896-2-2v-12.138c0-1.105,0.895-2,2-2h4.897
				c1.105,0,2,0.895,2,2v12.138C164.534,204.66,163.639,205.556,162.534,205.556z"/>
		</g>
		<g>
			<path style="fill:#47A7FF;" d="M179.052,183.59h-5.931v-5.345c0-0.552,0.448-1,1-1h3.931c0.552,0,1,0.448,1,1V183.59z"/>
			<path style="fill:#78BEFF;" d="M183.173,209.383h-14.173v-22.172c0-2.762,2.239-5,5-5h4.173c2.761,0,5,2.238,5,5V209.383z"/>
			<path style="fill:#B2DAFF;" d="M178.535,205.556h-4.897c-1.104,0-2-0.896-2-2v-12.138c0-1.105,0.896-2,2-2h4.897
				c1.105,0,2,0.895,2,2v12.138C180.535,204.66,179.64,205.556,178.535,205.556z"/>
		</g>
		<g>
			<path style="fill:#47A7FF;" d="M195.053,183.59h-5.931v-5.345c0-0.552,0.448-1,1-1h3.931c0.552,0,1,0.448,1,1V183.59z"/>
			<path style="fill:#78BEFF;" d="M199.174,209.383h-14.173v-22.172c0-2.762,2.239-5,5-5h4.173c2.761,0,5,2.238,5,5V209.383z"/>
			<path style="fill:#B2DAFF;" d="M194.536,205.556h-4.897c-1.105,0-2-0.896-2-2v-12.138c0-1.105,0.895-2,2-2h4.897
				c1.105,0,2,0.895,2,2v12.138C196.536,204.66,195.641,205.556,194.536,205.556z"/>
		</g>
		<g>
			<path style="fill:#47A7FF;" d="M245.535,371.159h-5.931v-5.345c0-0.552,0.448-1,1-1h3.931c0.552,0,1,0.448,1,1V371.159z"/>
			<path style="fill:#78BEFF;" d="M249.656,396.952h-14.173V374.78c0-2.761,2.239-5,5-5h4.173c2.761,0,5,2.239,5,5V396.952z"/>
			<path style="fill:#B2DAFF;" d="M245.018,393.125h-4.897c-1.105,0-2-0.895-2-2v-12.138c0-1.105,0.895-2,2-2h4.897
				c1.104,0,2,0.895,2,2v12.138C247.018,392.229,246.123,393.125,245.018,393.125z"/>
		</g>
		<g>
			<path style="fill:#47A7FF;" d="M261.536,371.159h-5.931v-5.345c0-0.552,0.448-1,1-1h3.931c0.552,0,1,0.448,1,1V371.159z"/>
			<path style="fill:#78BEFF;" d="M265.657,396.952h-14.173V374.78c0-2.761,2.239-5,5-5h4.173c2.761,0,5,2.239,5,5V396.952z"/>
			<path style="fill:#B2DAFF;" d="M261.019,393.125h-4.897c-1.105,0-2-0.895-2-2v-12.138c0-1.105,0.895-2,2-2h4.897
				c1.104,0,2,0.895,2,2v12.138C263.019,392.229,262.124,393.125,261.019,393.125z"/>
		</g>
		<g>
			<path style="fill:#A1D2FF;" d="M183.517,271.711h-12.302v-46.715c0-0.481,0.39-0.872,0.872-0.872h10.559
				c0.481,0,0.872,0.39,0.872,0.872V271.711z"/>
			<path style="fill:#D9EDFF;" d="M179.768,267.977h-4.803c-0.481,0-0.872-0.39-0.872-0.872v-38.167c0-0.481,0.39-0.872,0.872-0.872
				h4.803c0.481,0,0.872,0.39,0.872,0.872v38.167C180.64,267.586,180.249,267.977,179.768,267.977z"/>
		</g>
	</g>
</g>
<g id="OBJECTS">
	<g>
		<g>
			<g>
				<path style="fill:#021733;" d="M178.134,432.809h-4.433c-1.836,0-3.325-1.488-3.325-3.325v-117.47h11.082v117.47
					C181.459,431.32,179.97,432.809,178.134,432.809z"/>
				<path style="fill:#283952;" d="M177.179,432.809h-3.477c-1.836,0-3.325-1.488-3.325-3.325v-117.47h6.802V432.809z"/>
			</g>
			<g>
				<path style="fill:#021733;" d="M203.049,432.809h-4.433c-1.836,0-3.325-1.488-3.325-3.325v-117.47h11.082v117.47
					C206.374,431.32,204.885,432.809,203.049,432.809z"/>
				<path style="fill:#283952;" d="M202.094,432.809h-3.477c-1.836,0-3.325-1.488-3.325-3.325v-117.47h6.802V432.809z"/>
			</g>
			<g>
				<path style="fill:#021733;" d="M408.384,432.809h-4.433c-1.836,0-3.325-1.488-3.325-3.325v-117.47h11.082v117.47
					C411.709,431.32,410.22,432.809,408.384,432.809z"/>
				<path style="fill:#283952;" d="M407.429,432.809h-3.477c-1.836,0-3.325-1.488-3.325-3.325v-117.47h6.802V432.809z"/>
			</g>
			<g>
				<path style="fill:#021733;" d="M433.299,432.809h-4.433c-1.836,0-3.325-1.488-3.325-3.325v-117.47h11.082v117.47
					C436.624,431.32,435.135,432.809,433.299,432.809z"/>
				<path style="fill:#283952;" d="M432.344,432.809h-3.477c-1.836,0-3.325-1.488-3.325-3.325v-117.47h6.802V432.809z"/>
			</g>
			<path style="fill:#04377D;" d="M391.439,165.539h68.901c1.478,0,2.542,1.42,2.127,2.839l-17.352,59.308
				c-0.276,0.945-1.143,1.594-2.127,1.594H374.23c-1.476,0-2.54-1.416-2.129-2.834l17.209-59.308
				C389.585,166.19,390.453,165.539,391.439,165.539z"/>
			<g>
				<rect x="408.69" y="228.21" style="fill:#021733;" width="13.299" height="19.871"/>
				<rect x="408.69" y="228.21" style="fill:#283952;" width="9.019" height="19.871"/>
			</g>
			<path style="fill:#43699D;" d="M160.756,273.456v39.208h260.162v-41.195C420.918,271.468,160.374,273.073,160.756,273.456z"/>
			<path style="fill:#2A5590;" d="M440.76,246.824c-0.727-0.548-1.6-0.74-2.489-0.883H182.328c-1.068,0-2.07,0.513-2.695,1.378
				l-18.876,26.136h260.009l20.408-26.239C441.046,247.076,440.914,246.94,440.76,246.824z"/>
			<path style="fill:#04377D;" d="M441.174,247.216l-20.408,26.239v39.208h21.4v-63.45
				C441.972,248.46,441.664,247.757,441.174,247.216z"/>
			<rect x="208.6" y="279.188" style="fill:#021733;" width="149.952" height="11.006"/>
			<g>
				<g>
					<path style="fill:#5C7DAA;" d="M386.549,246.412c-1.011,0.187-1.714,1.684-2.246,2.439c-0.6,0.852-1.181,1.716-1.803,2.552
						c-1.029,1.384-2.009,2.805-3.009,4.208c-3.149,4.418-6.274,8.855-9.379,13.305c-0.971,1.391-1.974,2.769-2.887,4.2
						c-0.309,0.485,0.461,0.932,0.769,0.449c2.078-3.259,4.379-6.392,6.586-9.564c2.701-3.881,5.379-7.785,8.179-11.596
						c1.347-1.834,2.646-3.693,4.125-5.419C387.113,246.72,386.892,246.349,386.549,246.412L386.549,246.412z"/>
				</g>
			</g>
			<g>
				<g>
					<path style="fill:#5C7DAA;" d="M367.279,273.685c-0.258,3.257-0.042,6.61-0.043,9.878c-0.001,3.21-0.005,6.421-0.001,9.631
						c0.004,3.21,0.007,6.42,0.011,9.631c0.004,3.063-0.312,6.32,0.184,9.347c0.048,0.291,0.54,0.291,0.588,0
						c0.497-3.028,0.181-6.284,0.184-9.347c0.004-3.21,0.008-6.42,0.011-9.631c0.004-3.21,0.001-6.42-0.001-9.631
						c-0.002-3.267,0.214-6.621-0.044-9.878C368.124,273.113,367.324,273.112,367.279,273.685L367.279,273.685z"/>
				</g>
			</g>
			<g>
				<g>
					<path style="fill:#5C7DAA;" d="M216.982,246.412c-1.011,0.187-1.714,1.684-2.246,2.439c-0.6,0.852-1.181,1.716-1.803,2.552
						c-1.029,1.384-2.009,2.805-3.009,4.208c-3.149,4.418-6.274,8.855-9.38,13.305c-0.971,1.391-1.974,2.769-2.887,4.2
						c-0.309,0.485,0.461,0.932,0.769,0.449c2.078-3.259,4.379-6.392,6.586-9.564c2.701-3.881,5.379-7.785,8.179-11.596
						c1.348-1.834,2.646-3.693,4.125-5.419C217.546,246.72,217.325,246.349,216.982,246.412L216.982,246.412z"/>
				</g>
			</g>
			<g>
				<g>
					<path style="fill:#5C7DAA;" d="M197.712,273.685c-0.258,3.257-0.042,6.61-0.044,9.878c-0.001,3.21-0.005,6.421-0.001,9.631
						c0.004,3.21,0.007,6.42,0.011,9.631c0.004,3.063-0.312,6.32,0.184,9.347c0.048,0.291,0.54,0.291,0.588,0
						c0.497-3.028,0.181-6.284,0.185-9.347c0.004-3.21,0.007-6.42,0.011-9.631c0.004-3.21,0.001-6.42-0.001-9.631
						c-0.002-3.267,0.214-6.621-0.044-9.878C198.557,273.113,197.757,273.112,197.712,273.685L197.712,273.685z"/>
				</g>
			</g>
			<path style="fill:#0084FF;" d="M393.316,254.108c-0.355,1.218-1.63,2.205-2.848,2.205c-1.218,0-1.917-0.987-1.562-2.205
				c0.355-1.218,1.63-2.205,2.848-2.205S393.671,252.89,393.316,254.108z"/>
			<path style="fill:#0084FF;" d="M403.747,254.108c-0.355,1.218-1.63,2.205-2.848,2.205s-1.917-0.987-1.562-2.205
				c0.355-1.218,1.631-2.205,2.848-2.205C403.403,251.903,404.102,252.89,403.747,254.108z"/>
			<path style="fill:#0084FF;" d="M414.178,254.108c-0.355,1.218-1.63,2.205-2.848,2.205s-1.917-0.987-1.562-2.205
				c0.355-1.218,1.63-2.205,2.848-2.205C413.834,251.903,414.533,252.89,414.178,254.108z"/>
			<path style="fill:#0084FF;" d="M424.609,254.108c-0.355,1.218-1.63,2.205-2.848,2.205c-1.218,0-1.917-0.987-1.562-2.205
				c0.355-1.218,1.63-2.205,2.848-2.205S424.964,252.89,424.609,254.108z"/>
			<path style="fill:#0084FF;" d="M388.965,261.814c-0.355,1.218-1.63,2.205-2.848,2.205c-1.218,0-1.917-0.987-1.562-2.205
				c0.355-1.218,1.63-2.205,2.848-2.205S389.321,260.596,388.965,261.814z"/>
			
				<ellipse transform="matrix(0.7564 -0.6541 0.6541 0.7564 -74.4976 323.5985)" style="fill:#0084FF;" cx="397.191" cy="261.814" rx="2.55" ry="1.907"/>
			
				<ellipse transform="matrix(0.7564 -0.6541 0.6541 0.7564 -71.9564 330.4219)" style="fill:#0084FF;" cx="407.622" cy="261.814" rx="2.55" ry="1.907"/>
			<path style="fill:#0084FF;" d="M420.259,261.814c-0.355,1.218-1.63,2.205-2.848,2.205c-1.218,0-1.917-0.987-1.562-2.205
				c0.355-1.218,1.63-2.205,2.848-2.205C419.915,259.609,420.614,260.596,420.259,261.814z"/>
			<path style="fill:#2A5590;" d="M385.898,165.539h71.859l-18.648,63.741h-70.42c-1.476,0-2.54-1.416-2.129-2.834l17.209-59.308
				C384.044,166.19,384.911,165.539,385.898,165.539z"/>
			<g>
				<polygon style="fill:#283952;" points="440.84,207.574 451.842,169.971 387.562,169.971 376.651,207.574 				"/>
				<polygon style="fill:#43699D;" points="375.36,212.16 371.945,223.93 436.092,223.93 439.536,212.16 				"/>
			</g>
			<polygon style="fill:#486DA0;" points="419.298,175.168 418.777,176.964 391.072,176.964 391.592,175.168 			"/>
			<polygon style="fill:#486DA0;" points="417.669,180.787 417.148,182.582 389.443,182.582 389.963,180.787 			"/>
			<polygon style="fill:#486DA0;" points="416.04,186.406 415.519,188.201 387.813,188.201 388.334,186.406 			"/>
			<polygon style="fill:#486DA0;" points="414.411,192.024 413.89,193.82 386.184,193.82 386.705,192.024 			"/>
			<path style="fill:#0084FF;" d="M376.792,215.176l-1.486,5.121c-0.206,0.709,0.326,1.417,1.064,1.417h3.233
				c0.493,0,0.927-0.326,1.064-0.799l1.486-5.121c0.206-0.709-0.326-1.417-1.064-1.417h-3.233
				C377.364,214.376,376.93,214.702,376.792,215.176z"/>
			<path style="fill:#04377D;" d="M390.65,215.249c0.307,0.732-0.011,1.615-0.711,1.971s-1.517,0.052-1.824-0.681
				c-0.307-0.732,0.011-1.615,0.711-1.971C389.526,214.213,390.343,214.517,390.65,215.249z"/>
			<path style="fill:#04377D;" d="M395.911,215.249c0.307,0.732-0.011,1.615-0.711,1.971s-1.517,0.052-1.824-0.681
				c-0.307-0.732,0.011-1.615,0.711-1.971C394.787,214.213,395.604,214.517,395.911,215.249z"/>
			<path style="fill:#04377D;" d="M401.172,215.249c0.307,0.732-0.011,1.615-0.711,1.971c-0.7,0.356-1.517,0.052-1.824-0.681
				c-0.307-0.732,0.011-1.615,0.711-1.971C400.048,214.213,400.865,214.517,401.172,215.249z"/>
			<path style="fill:#04377D;" d="M406.433,215.249c0.307,0.732-0.011,1.615-0.712,1.971c-0.7,0.356-1.517,0.052-1.824-0.681
				c-0.307-0.732,0.011-1.615,0.711-1.971C405.309,214.213,406.126,214.517,406.433,215.249z"/>
			<path style="fill:#04377D;" d="M411.694,215.249c0.307,0.732-0.011,1.615-0.711,1.971c-0.7,0.356-1.517,0.052-1.824-0.681
				c-0.307-0.732,0.011-1.615,0.711-1.971C410.57,214.213,411.386,214.517,411.694,215.249z"/>
			<path style="fill:#04377D;" d="M416.954,215.249c0.307,0.732-0.011,1.615-0.711,1.971c-0.7,0.356-1.517,0.052-1.824-0.681
				c-0.307-0.732,0.011-1.615,0.711-1.971C415.83,214.213,416.647,214.517,416.954,215.249z"/>
			<path style="fill:#04377D;" d="M422.215,215.249c0.307,0.732-0.011,1.615-0.711,1.971c-0.7,0.356-1.517,0.052-1.824-0.681
				c-0.307-0.732,0.011-1.615,0.711-1.971C421.091,214.213,421.908,214.517,422.215,215.249z"/>
			<path style="fill:#04377D;" d="M388.048,219.616c0.307,0.732-0.011,1.615-0.711,1.971c-0.7,0.356-1.517,0.052-1.824-0.681
				s0.011-1.615,0.711-1.971C386.924,218.579,387.741,218.884,388.048,219.616z"/>
			<path style="fill:#04377D;" d="M393.309,219.616c0.307,0.732-0.011,1.615-0.711,1.971c-0.7,0.356-1.517,0.052-1.824-0.681
				c-0.307-0.732,0.011-1.615,0.711-1.971C392.185,218.579,393.002,218.884,393.309,219.616z"/>
			<path style="fill:#04377D;" d="M398.57,219.616c0.307,0.732-0.011,1.615-0.711,1.971c-0.7,0.356-1.517,0.052-1.824-0.681
				c-0.307-0.732,0.011-1.615,0.711-1.971C397.446,218.579,398.263,218.884,398.57,219.616z"/>
			<path style="fill:#04377D;" d="M403.831,219.616c0.307,0.732-0.011,1.615-0.711,1.971c-0.7,0.356-1.517,0.052-1.824-0.681
				c-0.307-0.732,0.011-1.615,0.711-1.971C402.707,218.579,403.523,218.884,403.831,219.616z"/>
			<path style="fill:#04377D;" d="M409.091,219.616c0.307,0.732-0.011,1.615-0.711,1.971c-0.7,0.356-1.517,0.052-1.824-0.681
				c-0.307-0.732,0.011-1.615,0.712-1.971C407.967,218.579,408.784,218.884,409.091,219.616z"/>
			<path style="fill:#04377D;" d="M414.352,219.616c0.307,0.732-0.011,1.615-0.711,1.971c-0.7,0.356-1.517,0.052-1.824-0.681
				c-0.307-0.732,0.011-1.615,0.711-1.971C413.228,218.579,414.045,218.884,414.352,219.616z"/>
			<path style="fill:#04377D;" d="M419.613,219.616c0.307,0.732-0.011,1.615-0.711,1.971c-0.7,0.356-1.517,0.052-1.824-0.681
				c-0.307-0.732,0.011-1.615,0.711-1.971C418.489,218.579,419.306,218.884,419.613,219.616z"/>
			<path style="fill:#FF5E3F;" d="M434.179,216.706c0.649,1.546-0.024,3.409-1.502,4.161c-1.478,0.752-3.202,0.109-3.851-1.437
				s0.024-3.409,1.502-4.161C431.806,214.518,433.53,215.161,434.179,216.706z"/>
			<path style="fill:#7ABFFF;" d="M427.215,215.202c0.152,0.362-0.005,0.797-0.351,0.973s-0.749,0.025-0.901-0.336
				c-0.152-0.362,0.005-0.797,0.351-0.973C426.66,214.69,427.064,214.84,427.215,215.202z"/>
			<path style="fill:#0084FF;" d="M426.658,217.925c0.152,0.362-0.006,0.797-0.351,0.973c-0.346,0.176-0.749,0.025-0.901-0.336
				c-0.152-0.362,0.005-0.797,0.351-0.973C426.103,217.413,426.506,217.563,426.658,217.925z"/>
		</g>
		<g>
			<path style="fill:#FFFFFF;" d="M333.91,308.763c-4.122,15.293-2.316,31.794-2.438,45.558
				c-0.155,16.202-4.898,25.522-4.898,25.522H200.227c0,0,4.743-9.32,4.898-25.522c0.133-13.764-1.685-30.265,2.438-45.558
				c3.712-13.72,15.748-27.207,15.748-27.207h126.347C349.658,281.557,337.623,295.043,333.91,308.763z"/>
			<g>
				<path style="fill:#9FA7B1;" d="M200.576,380.073c32.956,0.199,65.918-0.017,98.875,0.021c4.486,0.005,8.974-0.016,13.46,0.026
					c4.412,0.042,8.846,0.309,13.256,0.146c0.323-0.012,0.323-0.49,0-0.502c-7.969-0.311-15.975-0.184-23.949-0.175
					c-8.208,0.009-16.415,0.022-24.623,0.039c-16.478,0.035-32.955-0.034-49.432-0.052c-9.196-0.01-18.391-0.018-27.587,0.038
					C200.28,379.616,200.28,380.072,200.576,380.073L200.576,380.073z"/>
			</g>
			<g>
				<path style="fill:#9FA7B1;" d="M349.515,281.442c-4.518,4.887-8.123,10.764-11.391,16.537
					c-3.526,6.229-5.743,13.146-6.38,20.277c-0.701,7.842-0.757,15.719-0.683,23.586c0.062,6.646,0.454,13.355-0.245,19.978
					c-0.638,6.04-1.62,12.835-4.801,18.131c-0.163,0.272,0.241,0.495,0.419,0.245c2.942-4.16,3.829-9.97,4.561-14.891
					c0.891-5.991,0.837-11.936,0.752-17.98c-0.109-7.714-0.261-15.435,0.138-23.144c0.204-3.939,0.45-7.901,1.286-11.765
					c0.833-3.847,2.144-7.597,3.855-11.141c3.366-6.969,7.944-13.526,12.795-19.527
					C349.992,281.536,349.708,281.233,349.515,281.442L349.515,281.442z"/>
			</g>
			<g>
				<path style="fill:#C7CCD2;" d="M342.543,281.557h-1.341c-2.638,3.735-5.408,8.378-7.757,12.9
					c-2.516,4.843-4.555,9.52-5.419,12.722c-3.369,12.512-3.059,25.478-2.781,36.914l0.011,0.454
					c0.078,3.413,0.144,6.638,0.122,9.719c-0.078,8.799-1.629,15.404-2.959,19.482H208.76c1.574-6.018,2.394-12.534,2.46-19.383
					c0.033-3.014-0.033-6.062-0.111-9.287l-0.022-1.297c-0.266-11.149-0.543-22.674,2.36-33.424
					c2.25-8.345,11.625-22.22,16.856-28.802h-1.396c-5.375,6.893-14.307,20.302-16.523,28.514
					c-2.948,10.905-2.671,22.508-2.405,33.756l0.022,1.274c0.077,3.225,0.144,6.261,0.111,9.254
					c-0.066,7.026-0.942,13.686-2.604,19.804l-0.188,0.698h115.897l0.122-0.377c1.396-4.122,3.059-10.982,3.147-20.214
					c0.022-3.092-0.044-6.317-0.122-9.741l-0.011-0.454c-0.078-3.225-0.155-6.583-0.155-10.007c0-8.633,0.51-17.754,2.892-26.597
					C330.796,301.194,337.057,289.181,342.543,281.557z"/>
			</g>
			<path style="fill:#66B5FF;" d="M221.279,363.221c0.285-2.862,0.441-5.781,0.469-8.752c0.031-3.173-0.036-6.302-0.108-9.613
				l-0.028-1.272c-0.248-10.45-0.504-21.205,2.002-30.478c1.392-5.152,7.008-14.094,11.737-20.467h87.136
				c-2.071,4.309-3.724,8.454-4.627,11.789c-3.769,13.99-3.422,28.37-3.142,39.924l0.01,0.434c0.073,3.331,0.141,6.477,0.12,9.404
				c-0.033,3.45-0.332,6.48-0.737,9.032H221.279z"/>
			<g>
				<path style="fill:#FFFFFF;" d="M228.548,297.276c8.725,0.432,17.518,0.217,26.253,0.214c4.329-0.001,8.659-0.003,12.988-0.004
					c2.211-0.001,4.422,0.011,6.632-0.002c2.226-0.013,4.413-0.228,6.632-0.338c0.39-0.019,0.39-0.587,0-0.606
					c-2.219-0.11-4.407-0.326-6.632-0.338c-2.211-0.012-4.422-0.001-6.632-0.002c-4.329-0.001-8.659-0.003-12.988-0.004
					c-8.735-0.003-17.528-0.217-26.253,0.214C227.992,296.437,227.991,297.248,228.548,297.276L228.548,297.276z"/>
			</g>
			<g>
				<path style="fill:#FFFFFF;" d="M262.253,303.925c4.755,0.131,9.54,0.18,14.296,0.065c4.662-0.113,9.355,0.086,14.021,0.102
					c4.674,0.016,9.347,0.003,14.021,0.001c4.766-0.002,9.542,0.126,14.296-0.237c0.467-0.036,0.468-0.691,0-0.727
					c-4.754-0.363-9.53-0.236-14.296-0.237c-4.674-0.002-9.347-0.015-14.021,0.001c-4.666,0.016-9.359,0.215-14.021,0.102
					c-4.756-0.115-9.541-0.066-14.296,0.065C261.696,303.074,261.695,303.909,262.253,303.925L262.253,303.925z"/>
			</g>
			<g>
				<path style="fill:#FFFFFF;" d="M236.115,313.209c2.32-0.123,4.668,0.061,6.993,0.069c2.342,0.008,4.663,0.017,6.993-0.242
					c0.478-0.053,0.479-0.691,0-0.745c-2.33-0.26-4.651-0.25-6.993-0.242c-2.325,0.008-4.673,0.192-6.993,0.069
					C235.413,312.081,235.412,313.246,236.115,313.209L236.115,313.209z"/>
			</g>
			<g>
				<path style="fill:#FFFFFF;" d="M237.72,323.431c5.036,0.057,10.072,0.237,15.113,0.242c4.946,0.005,9.892,0.002,14.838,0.002
					c9.984,0.001,19.968,0.003,29.951,0.005c5.649,0.001,11.272,0.057,16.908-0.362c0.434-0.032,0.435-0.643,0-0.675
					c-9.899-0.736-19.9-0.362-29.822-0.36c-9.984,0.002-19.968,0.003-29.951,0.005c-5.683,0.001-11.359,0.179-17.037,0.243
					C237.14,322.538,237.139,323.425,237.72,323.431L237.72,323.431z"/>
			</g>
			<g>
				<path style="fill:#FFFFFF;" d="M314.53,333.761c-12.392-0.208-24.764-0.308-37.144,0.39c-0.379,0.021-0.379,0.567,0,0.589
					c12.38,0.697,24.752,0.598,37.144,0.39C315.41,335.115,315.412,333.776,314.53,333.761L314.53,333.761z"/>
			</g>
			<g>
				<path style="fill:#FFFFFF;" d="M218.23,344.058c6.714,0.36,13.455,0.251,20.177,0.251c6.703,0,13.5,0.333,20.177-0.312
					c0.489-0.047,0.49-0.715,0-0.762c-6.677-0.645-13.474-0.312-20.177-0.312c-6.722,0-13.463-0.109-20.177,0.251
					C217.663,343.206,217.662,344.028,218.23,344.058L218.23,344.058z"/>
			</g>
			<g>
				<path style="fill:#FFFFFF;" d="M226.714,353c5.283,0.503,10.685,0.241,15.989,0.251c5.422,0.01,10.844,0.026,16.265,0.026
					c10.752,0,21.503,0,32.255,0c2.917,0,5.834,0,8.751,0c2.908,0,5.842,0.161,8.724-0.251c0.463-0.066,0.463-0.869,0-0.935
					c-2.45-0.351-4.907-0.251-7.381-0.251c-2.629,0-5.259,0-7.888,0c-5.422,0-10.843,0-16.265,0
					c-10.752,0-21.503,0.002-32.255,0.022c-6.03,0.011-12.189-0.317-18.195,0.255C226.147,352.171,226.146,352.946,226.714,353
					L226.714,353z"/>
			</g>
		</g>
	</g>
	<g>
		<path style="fill:#0084FF;" d="M222.187,211.38h-7.952v-7.166c0-0.741,0.6-1.341,1.341-1.341h5.27c0.74,0,1.341,0.6,1.341,1.341
			V211.38z"/>
		<path style="fill:#021733;" d="M224.387,245.96h-12.352c-1.836,0-3.325-1.488-3.325-3.325v-26.401
			c0-3.702,3.001-6.703,6.703-6.703h5.594c3.702,0,6.703,3.001,6.703,6.703v26.401C227.712,244.472,226.223,245.96,224.387,245.96z"
			/>
		<path style="fill:#0084FF;" d="M221.494,239.721h-6.565c-1.481,0-2.681-1.2-2.681-2.681v-16.273c0-1.481,1.201-2.681,2.681-2.681
			h6.565c1.481,0,2.681,1.201,2.681,2.681v16.273C224.175,238.52,222.975,239.721,221.494,239.721z"/>
	</g>
	<g>
		<path style="fill:#FF5E3F;" d="M245.461,211.38h-7.952v-7.166c0-0.741,0.6-1.341,1.341-1.341h5.27c0.74,0,1.341,0.6,1.341,1.341
			V211.38z"/>
		<path style="fill:#021733;" d="M247.661,245.96h-12.352c-1.836,0-3.325-1.488-3.325-3.325v-26.401
			c0-3.702,3.001-6.703,6.703-6.703h5.594c3.702,0,6.703,3.001,6.703,6.703v26.401C250.986,244.472,249.497,245.96,247.661,245.96z"
			/>
		<path style="fill:#FF5E3F;" d="M244.768,239.721h-6.565c-1.481,0-2.681-1.2-2.681-2.681v-16.273c0-1.481,1.201-2.681,2.681-2.681
			h6.565c1.481,0,2.681,1.201,2.681,2.681v16.273C247.449,238.52,246.248,239.721,244.768,239.721z"/>
	</g>
	<g>
		<path style="fill:#FFFFFF;" d="M267.627,211.38h-7.952v-7.166c0-0.741,0.6-1.341,1.341-1.341h5.27c0.74,0,1.341,0.6,1.341,1.341
			V211.38z"/>
		<path style="fill:#021733;" d="M269.827,245.96h-12.352c-1.836,0-3.325-1.488-3.325-3.325v-26.401
			c0-3.702,3.001-6.703,6.703-6.703h5.594c3.702,0,6.703,3.001,6.703,6.703v26.401C273.151,244.472,271.663,245.96,269.827,245.96z"
			/>
		<path style="fill:#FFFFFF;" d="M266.933,239.721h-6.565c-1.481,0-2.681-1.2-2.681-2.681v-16.273c0-1.481,1.201-2.681,2.681-2.681
			h6.565c1.481,0,2.681,1.201,2.681,2.681v16.273C269.615,238.52,268.414,239.721,266.933,239.721z"/>
	</g>
	<g>
		<g>
			<path style="fill:#9FA7B1;" d="M187.912,283.071c0.064,0,0.064-0.1,0-0.1C187.847,282.971,187.847,283.071,187.912,283.071
				L187.912,283.071z"/>
		</g>
	</g>
	<g>
		<path style="fill:#021733;" d="M107.117,422.754c0,0-3.176,8.085-2.454,10.684c0.722,2.599,37.681,3.898,37.393,1.299
			c-0.289-2.599-0.722-3.176-0.722-3.176s-20.645-9.095-22.522-11.55C116.934,417.556,107.117,422.754,107.117,422.754z"/>
		<path style="fill:#021733;" d="M71.89,424.522c0,0-1.841,8.121-1.299,9.204c0.541,1.083,25.121,13.102,30.21,9.853
			c5.089-3.248-14.834-14.185-15.051-17.433C85.533,422.898,71.89,424.522,71.89,424.522z"/>
		<path style="fill:#FF9D8A;" d="M116.073,197.246c0,0-1.842,8.447-11.702,9.63c-9.849,1.193-15.156-11.901-15.156-11.901
			s3.632-1.109,3.956-1.968c0.188-0.502,0.649-3.569,0.994-6.06c0.262-1.821,0.461-3.349,0.461-3.349l16.349,0.324
			c0,0,0,0.031-0.01,0.094c-0.01,0.052-0.021,0.146-0.031,0.262c-0.011,0.073-0.021,0.146-0.031,0.23
			c-0.01,0.063-0.01,0.136-0.021,0.22c-0.032,0.241-0.063,0.523-0.094,0.848c-0.021,0.209-0.042,0.44-0.063,0.691
			c-0.01,0.115-0.021,0.23-0.031,0.346c-0.011,0.105-0.021,0.209-0.032,0.324c-0.021,0.178-0.031,0.366-0.042,0.555
			c-0.011,0.094-0.011,0.199-0.021,0.293c-0.021,0.23-0.031,0.46-0.042,0.691c-0.01,0.167-0.021,0.325-0.031,0.492
			c-0.021,0.555-0.042,1.13-0.042,1.685c-0.01,1.8,0.136,3.444,0.607,4.208C111.949,196.273,116.073,197.246,116.073,197.246z"/>
		<path style="fill:#D6DADE;" d="M110.976,183.922c0,0,0,0.031-0.01,0.094c-0.01,0.052-0.021,0.146-0.031,0.262
			c-0.011,0.063-0.021,0.146-0.031,0.23c-0.01,0.063-0.01,0.136-0.021,0.22c-0.032,0.241-0.063,0.523-0.094,0.848
			c-0.021,0.209-0.042,0.44-0.063,0.691c-0.01,0.105-0.021,0.22-0.031,0.346c-0.011,0.105-0.021,0.209-0.032,0.324
			c-0.021,0.178-0.031,0.366-0.042,0.555c-0.011,0.094-0.021,0.188-0.021,0.293c-0.021,0.23-0.031,0.46-0.042,0.691
			c-0.021,0.157-0.021,0.325-0.031,0.492c-0.021,0.555-0.042,1.13-0.042,1.685c-1.685,0.639-3.737,1.099-6.217,1.068
			c-4.553-0.052-8.196-2.533-10.101-4.679v-0.094c0.262-1.821,0.461-3.349,0.461-3.349L110.976,183.922z"/>
		<path style="fill:#FF9D8A;" d="M91.814,171.149c0,0-3.032-3.682-5.631-1.516c-2.599,2.166-0.108,7.58,3.248,7.796
			c3.357,0.217,5.414-1.732,5.414-1.732L91.814,171.149z"/>
		<path style="fill:#FF9D8A;" d="M130.072,234.636c0,0,0.035,0.107,0.105,0.308c0.72,2.076,5.149,14.173,13.178,22.069
			c8.807,8.662,27.286,15.015,27.286,15.015s0.42,1.427,1.083,3.898c0.794,2.96,1.796,5.255,2.526,3.176
			c0.939-2.671,1.209-5.089,1.209-5.089s11.369,0.18,11.802-0.541c0.433-0.722-15.177-8.085-19.364-11.261
			c-4.187-3.176-11.261-10.106-17.613-18.913c-5.372-7.447-8.229-17.18-8.229-17.18L130.072,234.636z"/>
		<path style="fill:#FF9D8A;" d="M90.37,173.567c0,0,0.289,15.015,12.994,15.592c12.705,0.577,15.881-16.17,15.737-24.543
			c-0.144-8.374-2.166-12.849-2.166-12.849s-21.367-2.021-24.255,0.289C89.792,154.365,89.071,168.658,90.37,173.567z"/>
		<path style="fill:#021733;" d="M90.442,172.701c0,0,2.46-2.823,2.96-6.713c0.686-5.342-0.686-9.673-0.686-9.673
			s15.231,1.408,22.703,1.299c7.471-0.108,8.193-1.444,7.219-4.909c-0.975-3.465-13.066-9.059-21.187-8.301
			c-8.121,0.758-12.199,8.987-12.199,8.987s-4.1-1.948-4.873,4.548C83.584,164.616,90.442,172.701,90.442,172.701z"/>
		<g>
			<path style="fill:#C2C7CE;" d="M107.94,177.674c-0.153,0-0.292-0.105-0.33-0.26c-0.044-0.183,0.068-0.366,0.25-0.411l0.355-0.08
				c0.76-0.168,2.175-0.48,2.416-1.1c0.06-0.155,0.039-0.234,0.017-0.28c-0.114-0.246-0.674-0.438-1.123-0.593
				c-0.564-0.193-1.096-0.376-1.342-0.756c-0.39-0.604-0.303-1.85-0.234-2.85c0.021-0.301,0.05-2.033,0.113-3.156l0.029-0.531
				c0.011-0.188,0.181-0.329,0.358-0.322c0.188,0.01,0.331,0.171,0.322,0.358l-0.03,0.531c-0.061,1.113-0.091,2.845-0.113,3.165
				c-0.053,0.755-0.141,2.02,0.127,2.433c0.118,0.183,0.602,0.349,0.991,0.482c0.631,0.217,1.283,0.441,1.52,0.95
				c0.114,0.245,0.114,0.519-0.001,0.813c-0.373,0.959-1.896,1.295-2.903,1.517l-0.341,0.078
				C107.993,177.671,107.966,177.674,107.94,177.674z"/>
		</g>
		<g>
			<g>
				<path style="fill:#021733;" d="M101.804,179.674c1.336,1.361,3.146,2.052,5.021,2.245c0.862,0.089,1.73,0.073,2.587-0.059
					c0.643-0.099,1.425-0.236,1.697-0.901c0.055-0.134-0.061-0.333-0.202-0.356c-0.588-0.092-1.141,0.179-1.717,0.273
					c-0.739,0.121-1.506,0.118-2.25,0.052c-1.641-0.145-3.442-0.596-4.76-1.631C101.918,179.093,101.558,179.423,101.804,179.674
					L101.804,179.674z"/>
			</g>
		</g>
		<path style="fill:#021733;" d="M104.319,170.292c0.07,1.126-0.637,2.087-1.579,2.145s-1.762-0.807-1.832-1.934
			c-0.07-1.126,0.637-2.087,1.579-2.145C103.429,168.3,104.249,169.166,104.319,170.292z"/>
		<path style="fill:#021733;" d="M115.145,170.103c0.07,1.126-0.637,2.087-1.579,2.145c-0.942,0.058-1.762-0.807-1.832-1.934
			c-0.07-1.126,0.637-2.087,1.579-2.145C114.255,168.111,115.075,168.977,115.145,170.103z"/>
		<g>
			<g>
				<path style="fill:#021733;" d="M103.752,164.926c-0.326-0.294-0.776-0.35-1.195-0.384c-0.391-0.031-0.763,0.02-1.151,0.085
					c-0.386,0.066-0.722,0.181-1.081,0.342c-0.188,0.084-0.364,0.229-0.514,0.372c-0.082,0.079-0.183,0.227-0.242,0.342
					c-0.133,0.258-0.152,0.498-0.1,0.785c0-0.141,0-0.281,0-0.422c-0.158,0.543,0.207,1.01,0.765,1.005
					c-0.134-0.036-0.267-0.072-0.401-0.108c0.488,0.288,1.056,0.115,1.537-0.09c-0.086,0.036-0.172,0.073-0.258,0.109
					c0.408-0.169,0.826-0.323,1.254-0.434c0.202-0.052,0.396-0.136,0.594-0.201c0.261-0.085,0.598-0.209,0.79-0.421
					C103.993,165.64,104.041,165.188,103.752,164.926L103.752,164.926z"/>
			</g>
		</g>
		<g>
			<g>
				<path style="fill:#021733;" d="M111.865,165.842c0.1,0.262,0.235,0.446,0.479,0.586c0.181,0.104,0.339,0.124,0.533,0.16
					c0.26,0.048,0.517,0.108,0.777,0.153c0.27,0.047,0.539,0.108,0.799,0.195c0.126,0.042,0.25,0.083,0.377,0.121
					c0.053,0.016,0.105,0.037,0.158,0.053c0.25,0.078,0.432,0.054,0.69,0.019c-0.095,0.013-0.189,0.025-0.284,0.038
					c0.02-0.005,0.04-0.005,0.06,0c-0.091-0.012-0.183-0.025-0.274-0.037c0.032,0.007,0.063,0.015,0.094,0.023
					c0.389,0.105,0.804-0.042,1.047-0.357c0.227-0.294,0.305-0.782,0.078-1.106c-0.068-0.097-0.144-0.189-0.216-0.283
					c0.054,0.07,0.108,0.139,0.161,0.209c-0.006-0.009-0.011-0.017-0.017-0.026c0.035,0.083,0.07,0.166,0.105,0.25
					c-0.107-0.256-0.209-0.467-0.433-0.64c-0.089-0.068-0.173-0.127-0.27-0.18c-0.195-0.106-0.4-0.197-0.617-0.248
					c-0.376-0.087-0.765-0.134-1.149-0.16c-0.367-0.025-0.724,0.029-1.087,0.081c-0.202,0.029-0.376,0.063-0.559,0.172
					C112.022,165.041,111.725,165.471,111.865,165.842L111.865,165.842z"/>
			</g>
		</g>
		<path style="fill:#0084FF;" d="M130.505,201.864c-6.497-5.486-19.346-7.796-19.346-7.796s3.652,5.514-5.775,6.352
			c-10.142,0.902-12.272-7.652-12.272-7.652s-6.6,1.202-11.056,2.147c4.553,14.653,8.092,33.018-0.768,45.392l41.709,0.392
			c0,0,0.289-13.282,0.722-12.705c0.433,0.577,4.696,10.353,5.991,10.178c4.006-0.541,13.715-7.904,14.293-9.204
			C144.582,227.67,137.002,207.35,130.505,201.864z"/>
		<g>
			<g>
				<path style="fill:#59AFFF;" d="M91.385,197.33c1.542,1.972,2.96,4,5.049,5.448c0.992,0.688,2.123,1.248,3.319,1.457
					c1.26,0.22,2.606,0.079,3.885,0.114c2.49,0.067,5.127-0.219,7.237-1.663c1.971-1.348,3.547-3.679,3.635-6.109
					c0.01-0.279-0.428-0.343-0.491-0.066c-0.285,1.249-0.565,2.431-1.305,3.506c-0.768,1.115-1.831,2.017-3.015,2.665
					c-2.066,1.131-4.6,1.41-6.921,1.237c-2.213-0.165-4.596-0.991-6.37-2.33c-1.738-1.312-3.211-3.002-4.747-4.536
					C91.478,196.871,91.234,197.138,91.385,197.33L91.385,197.33z"/>
			</g>
		</g>
		<g>
			<g>
				<path style="fill:#59AFFF;" d="M131.222,234.667c0.851-0.485,1.764-0.857,2.66-1.247c0.903-0.393,1.726-0.841,2.549-1.381
					c0.722-0.474,1.46-0.926,2.146-1.452c0.325-0.249,0.679-0.506,0.925-0.838c0.186-0.252,0.481-0.609,0.368-0.941
					c-0.027-0.078-0.105-0.158-0.196-0.149c-0.322,0.031-0.568,0.341-0.805,0.54c-0.331,0.277-0.639,0.574-0.986,0.832
					c-0.67,0.499-1.384,0.932-2.074,1.4c-1.561,1.058-3.338,1.761-4.832,2.917C130.789,234.492,131.027,234.778,131.222,234.667
					L131.222,234.667z"/>
			</g>
		</g>
		<g>
			<g>
				<path style="fill:#59AFFF;" d="M141.249,228.055c0.037-0.033,0.071-0.069,0.102-0.108c0.063-0.079,0.134-0.166,0.162-0.266
					c0.019-0.067,0.028-0.139,0.032-0.208c0.004-0.064-0.005-0.128-0.015-0.192c-0.008-0.019-0.016-0.039-0.025-0.058
					c-0.013-0.016-0.025-0.033-0.038-0.049c-0.038-0.038-0.087-0.059-0.139-0.067c-0.044-0.006-0.084-0.001-0.126,0.017
					c-0.051,0.021-0.084,0.053-0.116,0.099c-0.006,0.008-0.012,0.017-0.018,0.025c0.013-0.017,0.026-0.034,0.04-0.051
					c-0.031,0.04-0.067,0.074-0.106,0.105c0.021-0.016,0.042-0.033,0.064-0.049c-0.019,0.014-0.039,0.027-0.059,0.04
					c-0.045,0.029-0.083,0.068-0.125,0.101c0.024-0.019,0.048-0.037,0.072-0.056c-0.053,0.041-0.112,0.074-0.173,0.1
					c0.031-0.013,0.062-0.026,0.093-0.039c-0.002,0.001-0.004,0.002-0.006,0.002c-0.066,0.019-0.124,0.052-0.172,0.101
					c-0.048,0.049-0.082,0.106-0.1,0.172c-0.023,0.103-0.015,0.208,0.039,0.301c0.025,0.045,0.058,0.082,0.101,0.11
					c0.038,0.035,0.082,0.058,0.133,0.07c0.069,0.019,0.139,0.019,0.208,0C141.143,228.137,141.2,228.103,141.249,228.055
					L141.249,228.055z"/>
			</g>
		</g>
		<path style="fill:#04377D;" d="M78.82,195.512c0,0,4.042,9.673,4.909,17.036c0.866,7.363-1.011,11.117-2.166,15.015
			c-1.155,3.898-5.486,9.384-5.486,9.384s-1.732,48.942-2.599,65.834c-0.866,16.892-4.764,121.489-3.321,122.356
			c1.444,0.866,4.304,1.603,9.095,1.877c5.053,0.289,8.518-1.011,8.518-1.011s5.053-31.112,7.219-48.87
			c2.166-17.758,5.775-51.83,5.775-51.83s4.042,19.49,5.197,53.995c0.317,9.46,0.763,21.126,0.144,30.607
			c-0.089,1.366-0.722,11.983-1.155,13.21c0,0,3.492,1.278,8.374,1.083c3.609-0.144,7.652-2.599,7.652-2.599
			s6.064-40.713,7.796-65.978c1.732-25.265-0.144-42.59-0.144-42.59s-3.573-86.177-4.042-90.377
			c-0.614-5.486-1.516-24.652-2.671-25.518c-1.155-0.866-4.403-1.335-4.403-1.335s0.938,8.59,1.444,14.87
			c0.431,5.356,0.144,8.518,0.144,8.518s-9.673,1.732-18.913,1.588c-9.24-0.144-11.405-1.011-11.405-1.011
			s-1.444-16.747-2.599-21.078c-1.155-4.331-1.444-5.342-1.444-5.342L78.82,195.512z"/>
		<g>
			<g>
				<path style="fill:#486DA0;" d="M77.281,268.044c2.344,0.796,4.724,1.451,7.148,1.954c1.145,0.237,2.313,0.305,3.479,0.351
					c1.254,0.05,2.507,0.171,3.761,0.194c0.115,0.002,0.137-0.168,0.027-0.199c-1.145-0.323-2.341-0.365-3.519-0.508
					c-1.237-0.15-2.454-0.358-3.671-0.625c-2.368-0.52-4.723-1.127-7.034-1.859C77.028,267.211,76.846,267.897,77.281,268.044
					L77.281,268.044z"/>
			</g>
		</g>
		<g>
			<g>
				<path style="fill:#486DA0;" d="M94.412,270.889c1.397,0.003,2.828,0.389,4.224,0.53c1.419,0.143,2.832,0.342,4.251,0.487
					c2.718,0.279,5.409,0.205,8.116-0.157c2.31-0.309,4.61-0.692,6.919-1.011c1.266-0.175,4.23-0.395,4.838-1.773
					c0.083-0.188-0.052-0.367-0.256-0.333c-0.832,0.14-1.614,0.795-2.459,1.033c-0.992,0.279-2.021,0.412-3.041,0.537
					c-2.272,0.278-4.515,0.731-6.787,1.001c-2.626,0.312-5.18,0.202-7.804-0.081c-1.26-0.136-2.516-0.302-3.777-0.427
					c-1.455-0.144-2.777,0.086-4.224,0.161C94.392,270.859,94.392,270.889,94.412,270.889L94.412,270.889z"/>
			</g>
		</g>
		<path style="fill:#486DA0;" d="M123.87,222.806c0.052,1.409-0.861,2.587-2.04,2.63s-2.176-1.064-2.228-2.473
			c-0.052-1.409,0.861-2.587,2.04-2.63C122.821,220.289,123.818,221.396,123.87,222.806z"/>
		<path style="fill:#486DA0;" d="M89.191,223.564c0.052,1.409-0.861,2.587-2.04,2.63c-1.179,0.044-2.176-1.064-2.228-2.473
			c-0.052-1.409,0.861-2.587,2.04-2.63C88.141,221.047,89.139,222.154,89.191,223.564z"/>
		<g>
			<g>
				<path style="fill:#9FA7B1;" d="M148.552,302.644c0.01,0,0.01-0.016,0-0.016C148.542,302.628,148.542,302.644,148.552,302.644
					L148.552,302.644z"/>
			</g>
		</g>
		<g>
			<path style="fill:#FFFFFF;" d="M205.943,270.222c0,0-2.387,10.613-8.667,16.674c-6.28,6.071-28.585,15.376-28.585,15.376
				s-36.163,26.858-67.135,24.911c-23.582-1.486-42.517-17.417-50.2-24.922c-2.407-2.355-3.716-3.883-3.716-3.883
				c-0.22-1.737,38.979-32.05,38.979-32.05l0.942,0.67l35.441,25.1c0,0,6.709-0.44,16.883-5.631
				c10.184-5.202,15.167-14.727,15.167-14.727s8.656,1.947,18.401,1.947C183.198,273.687,205.943,270.222,205.943,270.222z"/>
			<path style="fill:#EBECEF;" d="M87.561,266.999l-0.084,7.913l-36.122,27.35c-2.407-2.355-3.716-3.883-3.716-3.883
				c-0.22-1.737,38.979-32.05,38.979-32.05L87.561,266.999z"/>
			<path style="fill:#C7CCD2;" d="M86.616,266.326l0.866,8.59c0,0,11.591,6.616,21.512,12.993
				c12.127,7.796,23.966,18.047,46.921,18.335c22.955,0.289,40.424-11.839,45.766-16.17c5.342-4.331,9.529-10.828,9.529-10.828
				l-5.27-9.023c0,0-7.291,15.376-24.615,24.471c-14.504,7.615-35.371,7.363-48.798,0.722
				C119.1,288.776,86.616,266.326,86.616,266.326z"/>
			<g>
				<path style="fill:#C5CAD0;" d="M51.621,302.229c1.501-0.632,2.919-1.795,4.203-2.784c1.336-1.029,2.62-2.126,3.901-3.224
					c1.289-1.104,2.526-2.254,3.86-3.306c0.729-0.576,1.471-1.133,2.224-1.676c0.596-0.43,3.286-2.777,3.861-3.258
					c2.647-2.213-2.071,1.4-2.256,1.423c-0.721,0.092-1.324,0.645-1.897,1.065c-0.653,0.479-1.29,0.984-1.919,1.495
					c-1.351,1.097-2.712,2.192-4.037,3.318c-1.294,1.099-2.589,2.196-3.926,3.242c-0.732,0.572-1.464,1.143-2.219,1.686
					c-0.694,0.499-1.462,0.923-2.114,1.472C51.062,301.885,51.32,302.356,51.621,302.229L51.621,302.229z"/>
			</g>
			<g>
				<path style="fill:#C5CAD0;" d="M52.14,297.756c0.979-0.806,2.013-1.538,3.001-2.334c0.948-0.763,1.865-1.572,2.836-2.305
					c0.826-0.623,1.667-1.231,2.464-1.893c0.588-0.488,1.757-1.29,1.667-2.161c-0.012-0.116-0.105-0.205-0.228-0.173
					c-0.427,0.111-0.675,0.44-0.971,0.748c-0.354,0.369-0.74,0.706-1.135,1.03c-0.812,0.664-1.678,1.257-2.497,1.911
					c-1.902,1.52-3.719,3.157-5.485,4.829C51.56,297.63,51.901,297.953,52.14,297.756L52.14,297.756z"/>
			</g>
			<g>
				<path style="fill:#C5CAD0;" d="M65.388,286.749c2.622-2.573,5.779-4.448,8.674-6.679c1.402-1.081,2.72-2.264,4.103-3.37
					c0.77-0.616,1.557-1.209,2.332-1.818c0.652-0.512,1.464-1.062,1.894-1.781c0.055-0.092-0.036-0.208-0.139-0.18
					c-0.8,0.22-1.524,0.837-2.181,1.328c-0.743,0.555-1.465,1.142-2.187,1.724c-1.474,1.188-2.872,2.468-4.366,3.63
					c-2.852,2.22-5.887,4.257-8.407,6.868C64.935,286.654,65.207,286.927,65.388,286.749L65.388,286.749z"/>
			</g>
			<g>
				<path style="fill:#B3B9C2;" d="M88.406,271.683c1.955,1.609,3.949,3.13,6.149,4.394c2.158,1.24,4.333,2.405,6.308,3.939
					c0.065,0.051,0.149-0.028,0.092-0.092c-1.589-1.812-3.712-3.039-5.734-4.31c-2.203-1.385-4.254-3.001-6.418-4.444
					C88.498,270.966,88.118,271.445,88.406,271.683L88.406,271.683z"/>
			</g>
			<g>
				<path style="fill:#B3B9C2;" d="M111.502,286.91c2.022,1.543,4.221,2.828,6.47,4.005c2.272,1.19,4.469,2.507,6.707,3.758
					c4.545,2.539,9.546,4.498,14.463,6.18c0.106,0.036,0.173-0.126,0.076-0.179c-2.305-1.262-4.953-2.014-7.365-3.072
					c-2.418-1.061-4.829-2.159-7.109-3.498c-1.051-0.617-1.973-1.416-3.022-2.03c-1.1-0.645-2.236-1.226-3.373-1.804
					c-2.272-1.155-4.584-2.183-6.666-3.67C111.493,286.463,111.322,286.773,111.502,286.91L111.502,286.91z"/>
			</g>
			<g>
				<path style="fill:#B3B9C2;" d="M149.655,303.114c3.273,1.256,6.735,1.009,10.168,0.971c3.561-0.039,6.826-0.599,10.117-1.991
					c0.043-0.018,0.012-0.089-0.031-0.075c-3.298,1.095-6.81,1.121-10.245,1.209c-3.238,0.083-6.773,0.513-9.905-0.493
					C149.515,302.657,149.423,303.025,149.655,303.114L149.655,303.114z"/>
			</g>
			<g>
				<path style="fill:#B3B9C2;" d="M180.644,300.187c3.911-1.561,7.753-3.111,11.447-5.141c1.612-0.886,3.198-1.795,4.679-2.893
					c0.709-0.525,1.399-1.081,2.028-1.701c0.488-0.481,1.046-0.97,1.132-1.676c0.027-0.224-0.244-0.308-0.406-0.233
					c-0.629,0.293-1.045,1.001-1.542,1.475c-0.661,0.63-1.382,1.196-2.126,1.724c-1.442,1.025-2.962,1.968-4.487,2.864
					c-1.67,0.982-3.376,1.853-5.153,2.625c-1.929,0.838-3.891,1.575-5.692,2.672C180.38,299.991,180.474,300.255,180.644,300.187
					L180.644,300.187z"/>
			</g>
			<g>
				<path style="fill:#B3B9C2;" d="M193.331,290.099c1.052-1.089,2.612-1.498,3.812-2.405c1.327-1.002,2.573-2.138,3.692-3.368
					c1.133-1.246,2.189-2.561,3.218-3.894c0.558-0.723,1.107-1.452,1.652-2.184c0.466-0.625,1.229-1.34,1.386-2.118
					c0.038-0.189-0.148-0.344-0.324-0.249c-0.634,0.34-1.026,1.127-1.444,1.693c-0.517,0.699-1.035,1.397-1.561,2.089
					c-1.112,1.464-2.258,2.911-3.496,4.272c-1.121,1.233-2.385,2.434-3.711,3.444c-1.136,0.866-2.372,1.524-3.271,2.673
					C193.259,290.085,193.3,290.13,193.331,290.099L193.331,290.099z"/>
			</g>
			<g>
				<path style="fill:#B3B9C2;" d="M205.946,284.146c0.237-0.168,0.434-0.372,0.639-0.576c0.201-0.199,0.384-0.416,0.563-0.634
					c0.187-0.228,0.322-0.497,0.493-0.738c0.041-0.058,0.08-0.108,0.104-0.14c0.048-0.063,0.092-0.126,0.137-0.191
					c0.04-0.059,0.091-0.115,0.125-0.178c0.037-0.067,0.056-0.147,0.086-0.219c0.066-0.158-0.121-0.296-0.262-0.262
					c-0.162,0.04-0.282,0.103-0.41,0.211c-0.12,0.102-0.214,0.214-0.308,0.34c-0.167,0.225-0.341,0.468-0.467,0.718
					c-0.127,0.253-0.224,0.519-0.357,0.77c-0.135,0.254-0.316,0.465-0.533,0.654C205.627,284.016,205.802,284.249,205.946,284.146
					L205.946,284.146z"/>
			</g>
		</g>
		<g>
			<path style="fill:#FF9D8A;" d="M83.584,293.721c0.011,0.094-0.01,0.22-0.052,0.387c-0.042,0.209-0.126,0.481-0.251,0.785
				c-0.262,0.659-0.733,1.444-1.413,2.104c-0.136,0.136-0.283,0.262-0.44,0.377c-0.544,0.419-1.193,0.733-1.957,0.858
				c-0.293,0.052-0.607,0.073-0.942,0.052c-1.089-0.042-2.345-0.45-3.82-1.423c-6.5-4.281-9.535-11.482-11.367-14.947
				c-2.282-2.052-14.12-18.401-13.544-29.517c0.586-11.116,7.076-23.823,7.076-23.823s11.556-3.067,16.318,5.631
				c0,0-8.227,14.287-7.358,23.959c0.858,9.682,6.929,19.636,6.929,19.636s8.572-1.246,9.305,1.298
				c0.492,1.685-5.841,2.606-5.841,2.606S83.364,289.827,83.584,293.721z"/>
			<path style="fill:#0084FF;" d="M70.158,241.855c0,0,6.064-7.94,6.497-9.24c0.21-0.631,0.284,1.153,0.305,3.156
				c1.328-1.823,3.777-5.418,4.604-8.209c1.155-3.898,3.032-7.652,2.166-15.015c-0.8-6.797-4.299-15.545-4.833-16.852
				c-3.356,0.951-5.85,2.848-8.738,5.158c-6.713,5.371-10.106,14.437-12.56,21.078s-4.042,11.694-4.042,11.694s4.8,0.65,9.131,2.815
				C67.018,238.607,70.158,241.855,70.158,241.855z"/>
			<g>
				<g>
					<path style="fill:#59AFFF;" d="M55.998,231.004c2.062,0.767,4.278,1.292,6.21,2.367c0.96,0.534,1.876,1.151,2.753,1.812
						c0.462,0.348,0.912,0.712,1.352,1.088c0.363,0.311,0.646,0.58,1.138,0.629c0.17,0.017,0.259-0.167,0.234-0.307
						c-0.092-0.509-0.485-0.799-0.861-1.117c-0.424-0.36-0.86-0.707-1.303-1.044c-0.928-0.705-1.897-1.367-2.919-1.929
						c-2.025-1.114-4.259-1.438-6.437-2.102C55.774,230.282,55.627,230.866,55.998,231.004L55.998,231.004z"/>
				</g>
			</g>
			<g>
				<g>
					<path style="fill:#59AFFF;" d="M68.183,237.729c0.029,0.055,0.063,0.109,0.099,0.16c0.005,0.006,0.009,0.013,0.014,0.019
						c0.02,0.026,0.041,0.053,0.061,0.079c0.013,0.015,0.028,0.027,0.046,0.037c0.023,0.018,0.046,0.036,0.07,0.053
						c0.025,0.017,0.049,0.033,0.075,0.048c0.049,0.029,0.101,0.055,0.154,0.078c0.045,0.019,0.09,0.039,0.136,0.054
						c0.042,0.014,0.086,0.014,0.129,0.012c0.066-0.004,0.119-0.028,0.16-0.08c0.038-0.049,0.056-0.115,0.036-0.177
						c-0.016-0.05-0.034-0.097-0.059-0.143c-0.019-0.035-0.036-0.071-0.051-0.107c0.01,0.024,0.02,0.048,0.03,0.072
						c-0.024-0.057-0.043-0.116-0.058-0.176c-0.016-0.062-0.041-0.12-0.07-0.177c-0.015-0.03-0.03-0.061-0.043-0.092
						c0.013,0.032,0.027,0.064,0.04,0.096c-0.009-0.022-0.018-0.045-0.026-0.067c-0.019-0.069-0.054-0.129-0.104-0.179
						c-0.027-0.021-0.055-0.042-0.082-0.064c-0.063-0.037-0.132-0.055-0.205-0.055c-0.056-0.002-0.108,0.01-0.157,0.035
						c-0.05,0.016-0.094,0.044-0.131,0.084c-0.04,0.037-0.068,0.08-0.084,0.131c-0.026,0.048-0.037,0.101-0.035,0.157
						C68.128,237.597,68.146,237.665,68.183,237.729L68.183,237.729z"/>
				</g>
			</g>
		</g>
		<path style="fill:#FF9D8A;" d="M169.365,263.204c-1.679,1.057-3.157,2.401-4.416,3.963c-0.524,0.65-1.002,1.336-1.458,2.036
			c4.153,1.795,7.15,2.826,7.15,2.826s0.42,1.427,1.083,3.898c0.794,2.96,1.796,5.255,2.526,3.176
			c0.939-2.671,1.083-7.002,1.083-7.002S174.354,266.298,169.365,263.204z"/>
		<g>
			<path style="fill:#D6DADE;" d="M81.867,296.997c-0.126-0.084-0.251-0.157-0.345-0.23c-0.419-0.314-0.816-0.659-1.193-1.015
				c-0.764-0.712-1.497-1.444-2.209-2.208c-0.733-0.775-1.455-1.581-2.125-2.407c-0.628-0.775-1.172-1.602-1.884-2.292
				c-0.22-0.209-0.544,0.126-0.335,0.335c0.733,0.712,1.277,1.57,1.915,2.355c0.691,0.858,1.424,1.696,2.177,2.502
				c0.701,0.754,1.434,1.486,2.198,2.188c0.345,0.314,0.701,0.618,1.068,0.911c0.084,0.073,0.188,0.157,0.293,0.241L81.867,296.997z
				"/>
		</g>
		<g>
			<path style="fill:#D6DADE;" d="M83.531,294.108c-0.042,0.209-0.126,0.481-0.251,0.785c-0.356-0.272-0.691-0.565-1.036-0.848
				c-0.743-0.618-1.507-1.214-2.219-1.874c-1.402-1.298-2.617-2.774-3.642-4.386c-0.188-0.283,0.251-0.534,0.44-0.262
				c1.089,1.591,2.449,2.994,3.894,4.26c0.743,0.659,1.539,1.256,2.303,1.905C83.186,293.836,83.364,293.972,83.531,294.108z"/>
		</g>
		<g>
			<path style="fill:#D6DADE;" d="M79.47,298.232c-0.146-0.094-0.293-0.188-0.419-0.283c-0.377-0.293-0.722-0.628-1.068-0.963
				c-0.659-0.639-1.287-1.308-1.968-1.947c-1.539-1.455-3.035-2.994-4.323-4.679c-0.157-0.209-0.534-0.01-0.366,0.22
				c1.256,1.779,2.701,3.37,4.271,4.878c0.712,0.67,1.361,1.382,2.062,2.062c0.272,0.272,0.565,0.534,0.869,0.764L79.47,298.232z"/>
		</g>
	</g>
</g>
</svg>
